<svg width="24" height="24" viewBox="0 0 24 24" fill="none" xmlns="http://www.w3.org/2000/svg">
<g clip-path="url(#clip0_92_8399)">
<path fill-rule="evenodd" clip-rule="evenodd" d="M20.2854 4.17215L17.2971 1.12951C16.592 0.411577 15.6003 0 14.5753 0H4.9976C3.72277 0 2.68585 1.00091 2.68585 2.23148V6.71296H2.31175C1.03692 6.71296 0 7.71387 0 8.94444V17.2778C0 18.5083 1.03692 19.5093 2.31175 19.5093H2.68585V21.7685C2.68585 22.9991 3.72277 24 4.9976 24H19.0024C20.2772 24 21.3141 22.9991 21.3141 21.7685V19.5093H21.6882C22.9631 19.5093 24 18.5083 24 17.2778V8.94444C24 7.71387 22.9631 6.71296 21.6882 6.71296H21.3141V6.66301C21.3141 5.7324 20.9487 4.84754 20.2854 4.17215ZM4.43165 2.23148C4.43165 1.93038 4.68567 1.68519 4.9976 1.68519H14.5753C15.1229 1.68519 15.6535 1.90537 16.0302 2.28896L19.0185 5.3316C19.3732 5.69278 19.5683 6.16533 19.5683 6.66301V6.71296H4.43165V2.23148ZM22.2542 17.2778C22.2542 17.5789 22.0002 17.8241 21.6882 17.8241H2.31175C1.99982 17.8241 1.7458 17.5789 1.7458 17.2778V8.94444C1.7458 8.64335 1.99982 8.39815 2.31175 8.39815H21.6882C22.0002 8.39815 22.2542 8.64335 22.2542 8.94444V17.2778ZM19.5683 21.7685C19.5683 22.0696 19.3143 22.3148 19.0024 22.3148H4.9976C4.68567 22.3148 4.43165 22.0696 4.43165 21.7685V19.5093H19.5683V21.7685Z" fill="white"/>
<path d="M6.10449 13.5388L6.09668 12.6833H7.31152C7.62142 12.6833 7.85059 12.6261 7.99902 12.5115C8.14746 12.3943 8.22168 12.2263 8.22168 12.0076C8.22168 11.7576 8.14876 11.5779 8.00293 11.4685C7.8571 11.3591 7.62663 11.3044 7.31152 11.3044H6.53027V15.9998H5.7998C5.52366 15.9998 5.2998 15.7759 5.2998 15.4998V10.8123C5.2998 10.5361 5.52366 10.3123 5.7998 10.3123H7.31152C7.98079 10.3123 8.50423 10.4399 8.88184 10.6951C9.25944 10.9503 9.44824 11.3435 9.44824 11.8748C9.44824 12.1065 9.39486 12.324 9.28809 12.5271C9.18392 12.7276 9.01725 12.8904 8.78809 13.0154C8.55892 13.1404 8.26074 13.2068 7.89355 13.2146L7.5498 13.5388H6.10449ZM5.76855 15.9998L6.24512 15.0115H7.49902C7.79329 15.0115 8.00814 14.9451 8.14355 14.8123C8.27897 14.6768 8.34668 14.5089 8.34668 14.3083C8.34668 14.1495 8.31934 14.0128 8.26465 13.8982C8.20996 13.7836 8.12402 13.6951 8.00684 13.6326C7.89225 13.5701 7.73991 13.5388 7.5498 13.5388H6.40918L6.41699 12.6833H7.82715L8.1123 13.0232C8.46387 13.0154 8.74642 13.074 8.95996 13.199C9.1735 13.3214 9.32845 13.4828 9.4248 13.6833C9.52116 13.8839 9.56934 14.0961 9.56934 14.3201C9.56934 14.8748 9.39095 15.294 9.03418 15.5779C8.67741 15.8591 8.16569 15.9998 7.49902 15.9998H5.76855Z" fill="white"/>
<path d="M14.1162 15.5056C14.1162 15.7785 13.895 15.9998 13.6221 15.9998H11.2607V15.0115H13.6221C13.895 15.0115 14.1162 15.2327 14.1162 15.5056ZM11.6514 15.9998H10.9248C10.6487 15.9998 10.4248 15.7759 10.4248 15.4998V10.8123C10.4248 10.5361 10.6487 10.3123 10.9248 10.3123H11.1514C11.4275 10.3123 11.6514 10.5361 11.6514 10.8123V15.9998Z" fill="white"/>
<path d="M19.4209 15.4998C19.4209 15.7759 19.197 15.9998 18.9209 15.9998H18.4767C18.3015 15.9998 18.139 15.908 18.0485 15.7579L15.9873 12.3396V15.4998C15.9873 15.7759 15.7634 15.9998 15.4873 15.9998H15.2607C14.9846 15.9998 14.7607 15.7759 14.7607 15.4998V10.8123C14.7607 10.5361 14.9846 10.3123 15.2607 10.3123H15.705C15.8802 10.3123 16.0426 10.4039 16.1331 10.5539L18.1982 13.9763V10.8123C18.1982 10.5361 18.4221 10.3123 18.6982 10.3123H18.9209C19.197 10.3123 19.4209 10.5361 19.4209 10.8123V15.4998Z" fill="white"/>
</g>
<defs>
<clipPath id="clip0_92_8399">
<rect width="24" height="24" fill="white"/>
</clipPath>
</defs>
</svg>
