<svg width="204" height="26" viewBox="0 0 204 26" fill="none" xmlns="http://www.w3.org/2000/svg">
<path d="M73.8747 0.382812L47.1496 0.387546C46.4771 0.387228 45.8162 0.56381 45.2335 0.899622C44.6508 1.23543 44.1667 1.71864 43.8299 2.3008L39.7455 9.36486C39.4084 9.94685 38.9244 10.43 38.3417 10.7657C37.759 11.1017 37.0984 11.2782 36.4258 11.2779L10.8178 11.2572C10.1443 11.2571 9.48286 11.4345 8.8998 11.7714C8.31667 12.1086 7.83266 12.5932 7.49645 13.1765L0.625387 25.0248C0.569499 25.1221 0.540256 25.2325 0.540529 25.3448C0.540898 25.4569 0.570736 25.5671 0.62719 25.664C0.683597 25.7611 0.764567 25.8415 0.861906 25.8974C0.959317 25.9531 1.06967 25.9823 1.18191 25.9819L27.8938 25.9999C28.5663 26.0003 29.2273 25.8235 29.8099 25.4878C30.3926 25.1519 30.8767 24.6687 31.2135 24.0867L35.298 17.0226C35.635 16.4406 36.1191 15.9574 36.7018 15.6215C37.2844 15.2858 37.9451 15.109 38.6177 15.1093L64.224 15.1363C64.9034 15.1388 65.5715 14.9607 66.1596 14.6201C66.7477 14.2795 67.2348 13.7885 67.5706 13.1978L74.4232 1.34415C74.4801 1.24737 74.51 1.13723 74.5106 1.02505C74.5112 0.912844 74.4824 0.802494 74.4267 0.705022C74.3712 0.607622 74.2908 0.526504 74.194 0.469964C74.0969 0.413327 73.9868 0.383288 73.8747 0.382812Z" fill="url(#paint0_linear_71_3552)"/>
<path d="M94.4127 26V16.5702H98.2545C101.281 16.5702 102.251 17.2299 103.299 19.2478L106.869 26H113.622L109.857 19.0149C108.887 17.191 107.995 15.9493 105.666 15.3284V15.0179C110.556 14.5522 113.001 12.0299 113.001 7.8C113.001 2.83284 109.353 0 102.95 0H88.5918V26H94.4127ZM94.4127 5.23881H102.911C105.666 5.23881 106.908 6.13134 106.908 8.69254C106.908 11.409 105.666 12.1851 102.911 12.1851H94.4127V5.23881Z" fill="white"/>
<path d="M123.222 26V13.4657L122.989 8.69254H123.377L126.675 13.5821L136.26 26H142.469V0H136.648V12.5343L136.92 17.7731H136.493L132.923 12.3015L123.61 0H117.401V26H123.222Z" fill="white"/>
<path d="M160.343 26C168.686 26 173.964 21.1493 173.964 13C173.964 4.85075 168.686 0 160.343 0H147.808V26H160.343ZM160.343 5.23881C165.62 5.23881 167.755 6.75224 167.755 13C167.755 19.2478 165.62 20.7612 160.343 20.7612H153.629V5.23881H160.343Z" fill="white"/>
<path d="M184.25 26V16.5702H188.092C191.119 16.5702 192.089 17.2299 193.137 19.2478L196.707 26H203.459L199.695 19.0149C198.725 17.191 197.832 15.9493 195.504 15.3284V15.0179C200.393 14.5522 202.838 12.0299 202.838 7.8C202.838 2.83284 199.19 0 192.787 0H178.429V26H184.25ZM184.25 5.23881H192.749C195.504 5.23881 196.746 6.13134 196.746 8.69254C196.746 11.409 195.504 12.1851 192.749 12.1851H184.25V5.23881Z" fill="white"/>
<defs>
<linearGradient id="paint0_linear_71_3552" x1="5.3143" y1="25.9975" x2="53.6716" y2="44.8803" gradientUnits="userSpaceOnUse">
<stop stop-color="white"/>
<stop offset="0.498347" stop-color="white" stop-opacity="0.34"/>
<stop offset="0.802715" stop-color="white"/>
</linearGradient>
</defs>
</svg>
